<svg version="1.1" id="Layer_1" xmlns="http://www.w3.org/2000/svg" xmlns:xlink="http://www.w3.org/1999/xlink" x="0px" y="0px" viewBox="0 0 500 500" style="width: 151px;" xml:space="preserve" data-imageid="report-analysis-63" imageName="Report Analysis" class="illustrations_image">
<style type="text/css">
	.st0_report-analysis-63{fill:#FFFFFF;}
	.st1_report-analysis-63{fill:#093F68;}
	.st2_report-analysis-63{fill:#68E1FD;}
	.st3_report-analysis-63{fill:#DFEAEF;}
	.st4_report-analysis-63{fill:#F56132;}
	.st5_report-analysis-63{fill:#FFBC0E;}
	.st6_report-analysis-63{fill:#70CC40;}
</style>
<g id="paper_report-analysis-63">
	<path class="st0_report-analysis-63" d="M105.4,345.7L105.4,345.7c-15,0-27.2-12.2-27.2-27.2V84h215.1v234.5C132.6,333.5,120.4,345.7,105.4,345.7z"/>
	<path class="st1_report-analysis-63" d="M105.4,347.7c-16.1,0-29.2-13.1-29.2-29.2V84c0-1.1,0.9-2,2-2h215.2c1.1,0,2,0.9,2,2v234.5c0,1-0.8,1.9-1.8,2&#10;&#9;&#9;c-115.4,10.8-153.8,20-172.3,24.5C113.9,346.7,109.8,347.7,105.4,347.7z M80.2,86.1v232.4c0,13.9,11.3,25.2,25.2,25.2&#10;&#9;&#9;c4,0,7.8-0.9,14.9-2.6c18.5-4.4,56.8-13.7,171-24.4V86.1H80.2z"/>
	<path class="st0_report-analysis-63" d="M159.8,138.9h193.5c22,0,39.8,17.8,39.8,39.8l0,0V416H209c-20.1,0-22-16.1-22-22.2V191.9&#10;&#9;&#9;C174.5,167.7,159.8,138.9,159.8,138.9z"/>
	<path class="st1_report-analysis-63" d="M393.1,418H209c-22.3,0-24-18.6-24-24.3V192.4c-12.5-24.1-27-52.5-27-52.5c-0.6-1-0.2-2.2,0.7-2.7&#10;&#9;&#9;c0.3-0.2,0.7-0.3,1.1-0.3h193.5c23.1,0,41.8,18.7,41.8,41.8V416C395.1,417.1,394.2,418,393.1,418C393.1,418,393.1,418,393.1,418z&#10;&#9;&#9; M163.1,141c4.1,7.9,15.6,30.5,25.7,50c0.2,0.3,0.2,0.6,0.2,0.9v201.8c0,6.1,2,20.2,20,20.2h182V178.7c0-20.8-16.9-37.7-37.7-37.7&#10;&#9;&#9;H163.1z"/>
	<path class="st2_report-analysis-63 targetColor" d="M393.1,416h7c12.2,0,22-9.8,22-22l0,0v-22.6H224.3v22.3c0,11.1-7,21.8-19.9,21.8L393.1,416z" style="fill: rgb(219, 170, 97);"/>
	<path class="st1_report-analysis-63" d="M400.1,418h-7l-188.8-0.5c-1.1,0-2-0.9-2-2c0-1.1,0.9-2,2-2c12.3,0,17.9-10.2,17.9-19.8v-22.3c0-1.1,0.9-2,2-2&#10;&#9;&#9;h197.9c1.1,0,2,0.9,2,2V394C424.1,407.2,413.3,418,400.1,418z M393.1,413.9h7c11,0,20-9,20-20v-20.5H226.3v20.2&#10;&#9;&#9;c0,7.6-3.1,15.3-9.2,19.8L393.1,413.9z"/>
	<path class="st2_report-analysis-63 targetColor" d="M105.4,345.7H187V166.1c-0.3-15-12.7-27-27.7-26.7c-14.6,0.3-26.4,12.1-26.7,26.7v152.3&#10;&#9;&#9;C132.6,333.5,120.4,345.7,105.4,345.7C105.4,345.7,105.4,345.7,105.4,345.7z" style="fill: rgb(219, 170, 97);"/>
	<path class="st1_report-analysis-63" d="M187,347.7h-81.6c-1.1,0-2-0.9-2-2c0-1.1,0.9-2,2-2c13.9,0,25.2-11.3,25.2-25.2V166.1&#10;&#9;&#9;c-0.3-16.2,12.6-29.5,28.7-29.8s29.5,12.6,29.8,28.7c0,0.4,0,0.7,0,1.1v179.5C189.1,346.8,188.2,347.7,187,347.7&#10;&#9;&#9;C187,347.7,187,347.7,187,347.7z M120.3,343.6H185V166.1c0.3-13.9-10.8-25.4-24.7-25.7c-13.9-0.3-25.4,10.8-25.7,24.7&#10;&#9;&#9;c0,0.3,0,0.7,0,1v152.3C134.7,328.8,129.2,338.4,120.3,343.6L120.3,343.6z"/>
	<path class="st3_report-analysis-63" d="M361.8,279.5H227.1c-1.1,0-2-0.9-2-2s0.9-2,2-2h134.7c1.1,0,2,0.9,2,2S362.9,279.5,361.8,279.5z"/>
	<path class="st3_report-analysis-63" d="M361.8,302.2H227.1c-1.1,0-2-0.9-2-2s0.9-2,2-2h134.7c1.1,0,2,0.9,2,2S362.9,302.2,361.8,302.2z"/>
	<path class="st3_report-analysis-63" d="M361.8,325H227.1c-1.1,0-2-0.9-2-2c0-1.1,0.9-2,2-2h134.7c1.1,0,2,0.9,2,2C363.8,324.1,362.9,325,361.8,325z"/>
	<path class="st3_report-analysis-63" d="M324.2,347.7h-97.1c-1.1,0-2-0.9-2-2c0-1.1,0.9-2,2-2h97.1c1.1,0,2,0.9,2,2&#10;&#9;&#9;C326.3,346.8,325.4,347.7,324.2,347.7z"/>
</g>
<g id="graph_report-analysis-63">
	<path class="st1_report-analysis-63" d="M357.8,247.2H227.2c-1.1,0-2-0.9-2-2v-70.8c0-1.1,0.9-2,2-2c1.1,0,2,0.9,2,2v68.8h128.5c1.1,0,2,0.9,2,2&#10;&#9;&#9;S358.9,247.3,357.8,247.2L357.8,247.2z"/>
	<rect x="245.4" y="211.2" class="st4_report-analysis-63" width="19.2" height="34"/>
	<path class="st1_report-analysis-63" d="M264.7,247.2h-19.2c-1.1,0-2-0.9-2-2v-34c0-1.1,0.9-2,2-2h19.2c1.1,0,2,0.9,2,2v34&#10;&#9;&#9;C266.7,246.4,265.8,247.2,264.7,247.2z M247.5,243.2h15.2v-30h-15.2V243.2z"/>
	<rect x="282.8" y="192.5" class="st5_report-analysis-63" width="19.2" height="52.7"/>
	<path class="st1_report-analysis-63" d="M302.1,247.2h-19.2c-1.1,0-2-0.9-2-2v-52.7c0-1.1,0.9-2,2-2h19.2c1.1,0,2,0.9,2,2v52.7&#10;&#9;&#9;C304.1,246.3,303.2,247.2,302.1,247.2C302.1,247.2,302.1,247.2,302.1,247.2z M284.9,243.2H300v-48.6h-15.1V243.2z"/>
	<rect x="320.2" y="172.2" class="st6_report-analysis-63" width="19.2" height="73"/>
	<path class="st1_report-analysis-63" d="M339.5,247.2h-19.2c-1.1,0-2-0.9-2-2v-73c0-1.1,0.9-2,2-2h19.2c1.1,0,2,0.9,2,2v73&#10;&#9;&#9;C341.5,246.4,340.6,247.2,339.5,247.2z M322.2,243.2h15.2v-68.9h-15.2V243.2z"/>
</g>
<g id="magnifying-glass_report-analysis-63">
	
		<rect x="145.8" y="348.1" transform="matrix(0.577 -0.8167 0.8167 0.577 -222.9173 278.9172)" class="st1_report-analysis-63" width="24" height="13.1"/>
	<path class="st1_report-analysis-63" d="M156.3,370.3c-0.4,0-0.8-0.1-1.2-0.4l-10.7-7.6c-0.9-0.6-1.1-1.9-0.5-2.8c0,0,0,0,0-0.1l13.9-19.6&#10;&#9;&#9;c0.6-0.9,1.9-1.2,2.8-0.5c0,0,0,0,0.1,0l10.7,7.6c0.9,0.6,1.2,1.9,0.5,2.8c0,0,0,0,0,0.1L158,369.4&#10;&#9;&#9;C157.6,370,157,370.3,156.3,370.3L156.3,370.3z M148.4,360.2l7.4,5.2l11.5-16.3l-7.4-5.2L148.4,360.2z"/>
	
		<rect x="156.7" y="329.2" transform="matrix(0.577 -0.8167 0.8167 0.577 -205.788 281.2807)" class="st0_report-analysis-63" width="24" height="20.2"/>
	<path class="st1_report-analysis-63" d="M170,357c-0.4,0-0.8-0.1-1.2-0.4L152.4,345c-0.9-0.6-1.2-1.9-0.5-2.8c0,0,0,0,0-0.1l13.9-19.6&#10;&#9;&#9;c0.6-0.9,1.9-1.2,2.8-0.5c0,0,0,0,0.1,0l16.4,11.6c0.9,0.6,1.2,1.9,0.5,2.8c0,0,0,0,0,0.1l-13.9,19.6&#10;&#9;&#9;C171.3,356.7,170.7,357,170,357z M156.4,342.8l13.1,9.3l11.5-16.3l-13.1-9.3L156.4,342.8z"/>
	<path class="st0_report-analysis-63" d="M146.3,357.1l13,9.2c1,0.7,1.2,2,0.5,2.9l-29.3,41.5c-0.7,1-2,1.2-2.9,0.5l-13-9.2c-1-0.7-1.2-2-0.5-2.9&#10;&#9;&#9;l29.3-41.5C144.1,356.7,145.4,356.4,146.3,357.1z"/>
	<path class="st1_report-analysis-63" d="M128.3,412.8c-1.3,0-2.6-0.4-3.7-1.2l-9.4-6.6c-2.9-2-3.5-6-1.5-8.8c0,0,0,0,0,0l26.8-37.9&#10;&#9;&#9;c2-2.9,6-3.5,8.8-1.5c0,0,0,0,0,0l9.4,6.7c2.9,2,3.5,6,1.5,8.8c0,0,0,0,0,0l-26.8,37.9C132.3,411.8,130.4,412.8,128.3,412.8z&#10;&#9;&#9; M145.7,359.6c-0.7,0-1.4,0.4-1.9,1L117,398.5c-0.3,0.5-0.5,1.1-0.4,1.7c0.1,0.6,0.4,1.1,0.9,1.5l9.5,6.7l0,0&#10;&#9;&#9;c1,0.7,2.4,0.5,3.2-0.5l26.8-37.9c0.3-0.5,0.5-1.1,0.4-1.7c-0.1-0.6-0.4-1.1-0.9-1.5L147,360C146.6,359.8,146.1,359.6,145.7,359.6z&#10;&#9;&#9;"/>
	<path class="st0_report-analysis-63" d="M221.6,264.5c-21.4-15.1-51-10-66.1,11.4s-10,51,11.4,66.1c21.4,15.1,51,10,66.1-11.4&#10;&#9;&#9;C248.1,309.1,243,279.6,221.6,264.5C221.6,264.5,221.6,264.5,221.6,264.5z"/>
	<path class="st1_report-analysis-63" d="M194.1,352.6c-27.3,0-49.4-22.2-49.4-49.5s22.2-49.4,49.5-49.4c10.2,0,20.2,3.2,28.5,9.1l0,0&#10;&#9;&#9;c22.3,15.7,27.6,46.6,11.9,68.9C225.3,344.8,210.2,352.6,194.1,352.6z M194.3,257.8c-25,0-45.4,20.3-45.4,45.3&#10;&#9;&#9;c0,25,20.3,45.4,45.3,45.4c25,0,45.4-20.3,45.4-45.3c0-14.7-7.1-28.6-19.2-37.1l0,0C212.8,260.7,203.6,257.8,194.3,257.8z"/>
	<circle class="st0_report-analysis-63" cx="194.2" cy="303.2" r="32.3"/>
	<path class="st1_report-analysis-63" d="M194.2,337.5c-18.9,0-34.3-15.4-34.3-34.3c0-18.9,15.4-34.3,34.3-34.3s34.3,15.4,34.3,34.3c0,0,0,0,0,0&#10;&#9;&#9;C228.5,322.1,213.2,337.5,194.2,337.5z M194.2,272.9c-16.7,0-30.2,13.5-30.2,30.2c0,16.7,13.5,30.2,30.2,30.2&#10;&#9;&#9;c16.7,0,30.2-13.5,30.2-30.2C224.4,286.5,210.9,273,194.2,272.9L194.2,272.9z"/>
	<path class="st2_report-analysis-63 targetColor" d="M194.2,303.2h32.3c0,17.8-14.4,32.2-32.3,32.2c-17.8,0-32.2-14.4-32.2-32.3c0-17.8,14.4-32.2,32.3-32.2&#10;&#9;&#9;c3.3,0,6.6,0.5,9.8,1.5L194.2,303.2z" style="fill: rgb(219, 170, 97);"/>
	<path class="st1_report-analysis-63" d="M194.2,337.5c-18.9,0-34.3-15.4-34.3-34.3s15.4-34.3,34.3-34.3c3.5,0,7,0.5,10.4,1.6c1.1,0.3,1.7,1.4,1.3,2.5&#10;&#9;&#9;c0,0,0,0,0,0.1l-9,28.1h29.5c1.1,0,2,0.9,2,2C228.4,322.1,213.1,337.4,194.2,337.5z M194.2,272.9c-16.7,0-30.2,13.5-30.2,30.2&#10;&#9;&#9;c0,16.7,13.5,30.2,30.2,30.2c15.9,0,29.1-12.3,30.2-28.2h-30.2c-0.7,0-1.3-0.3-1.6-0.8c-0.4-0.5-0.5-1.2-0.3-1.8l9.2-28.7&#10;&#9;&#9;C199.1,273.3,196.7,273,194.2,272.9L194.2,272.9z"/>
</g>
</svg>