<svg version="1.1" id="Layer_1" xmlns="http://www.w3.org/2000/svg" xmlns:xlink="http://www.w3.org/1999/xlink" x="0px" y="0px" viewBox="0 0 500 500" style="width: 151px;" xml:space="preserve" data-imageid="police-16" imageName="Police" class="illustrations_image">
<style type="text/css">
	.st0_police-16{fill:#FFFFFF;}
	.st1_police-16{fill:#231F20;}
	.st2_police-16{fill:#68E1FD;}
	.st3_police-16{fill:#D1D3D4;}
</style>
<g id="Character_police-16">
	<path class="st0_police-16" d="M407.9,256c0,0-0.5,3.6-13.4,14.3c-12.8,34-39.8,74.2-57.8,83c-18.6,9-40.3-58.9-40.3-58.9l31.5-25.5&#10;&#9;&#9;c-1.7-5.2,2.3,12.7,10.1,34.6c10.1-11.3,32.6-41,32.6-41s-1.4-8.5-1.8-12.3c-0.2-2.1-0.2-4.2,0-6.2c0.1-2.2,1.5-7.9,4.2-8.4&#10;&#9;&#9;c0.9-0.1,1.7,0.3,2.2,1.1c0.4,0.7,0.7,1.6,0.9,2.4l1.3,6c0.2,1.2,0.6,2.4,1.2,3.4c1.7,2.6,5.4,2.8,8.2,3.4l9.6,1.9&#10;&#9;&#9;C397,253.9,407.9,255.9,407.9,256z"/>
	<path class="st1_police-16" d="M333.1,354.8c-1.4,0-2.7-0.3-3.9-0.9c-16.7-7.1-32.9-57.3-33.6-59.4c-0.1-0.3,0-0.6,0.2-0.8l31.1-25.1&#10;&#9;&#9;c-0.1-0.4-0.1-0.8,0-1.2c0.2-0.2,0.4-0.3,0.7-0.2c0.5,0.1,0.6,0.5,0.9,1.4c0.1,0.2,0,0.5-0.1,0.7c2.7,11.1,6,22,9.8,32.7&#10;&#9;&#9;c9.8-11.2,29.4-37,31.6-39.8c-0.2-1.6-1.4-8.7-1.7-12c-0.2-1.8-0.2-3.6-0.1-5.4l0.1-0.9c0.1-1.6,1.3-8.4,4.8-9&#10;&#9;&#9;c1.2-0.1,2.3,0.4,2.9,1.4c0.5,0.8,0.8,1.7,1,2.7l1.3,6c0.2,1.1,0.5,2.2,1.1,3.2c1.2,1.9,3.9,2.4,6.3,2.8c0.5,0.1,0.9,0.1,1.4,0.2&#10;&#9;&#9;l10.9,2.1c11,2.1,11,2.1,10.9,2.8l0,0c-0.1,0.7-1.4,4.5-13.5,14.6c-13.5,35.9-40.6,74.7-58.1,83.2&#10;&#9;&#9;C335.8,354.6,334.4,354.9,333.1,354.8z M297.1,294.6c1.7,5.2,17.4,51.5,32.6,58c2.1,1,4.5,1,6.5,0c17.3-8.4,44.1-47,57.5-82.6&#10;&#9;&#9;c0-0.1,0.1-0.2,0.2-0.3c9.5-7.8,12.2-11.8,12.9-13.2c-2-0.4-7.5-1.4-9.5-1.8l-10.9-2.1l-1.3-0.2c-2.5-0.4-5.7-1-7.3-3.4&#10;&#9;&#9;c-0.6-1.1-1.1-2.4-1.3-3.7l-1.3-6c-0.1-0.8-0.4-1.5-0.8-2.2c-0.3-0.5-0.9-0.8-1.5-0.8c-2.1,0.4-3.5,5.2-3.6,7.7l-0.1,1&#10;&#9;&#9;c-0.2,1.7-0.2,3.4,0,5.2c0.4,3.8,1.8,12.2,1.8,12.3c0,0.2,0,0.4-0.1,0.5c-0.2,0.3-22.6,29.8-32.6,41c-0.2,0.2-0.4,0.3-0.7,0.2&#10;&#9;&#9;c-0.3-0.1-0.5-0.2-0.5-0.5c-4.3-12.1-8.8-27.2-10.1-33.4L297.1,294.6z M407.2,255.9L407.2,255.9L407.2,255.9z"/>
	<path class="st0_police-16" d="M383,252.5c1.7,3.4,2.6,7.1,2.6,10.9"/>
	<path class="st1_police-16" d="M385.6,264.1c-0.4,0-0.7-0.3-0.7-0.7l0,0c0-3.6-0.9-7.2-2.5-10.5c-0.2-0.3-0.1-0.8,0.3-1c0,0,0,0,0,0&#10;&#9;&#9;c0.3-0.2,0.8-0.1,1,0.2c0,0,0,0,0,0c1.7,3.5,2.7,7.3,2.7,11.2C386.4,263.8,386,264.1,385.6,264.1&#10;&#9;&#9;C385.6,264.1,385.6,264.1,385.6,264.1z"/>
	<polygon class="st0_police-16" points="123.8,310.3 147.2,291.1 128.6,256.8 &#9;"/>
	<path class="st1_police-16" d="M123.8,311c-0.1,0-0.2,0-0.3-0.1c-0.3-0.1-0.4-0.4-0.4-0.7l4.8-53.5c0-0.3,0.3-0.6,0.6-0.6&#10;&#9;&#9;c0.3-0.1,0.6,0.1,0.8,0.4l18.5,34.4c0.2,0.3,0.1,0.7-0.2,0.9l-23.4,19.2C124.1,310.9,124,311,123.8,311z M129.1,259.2l-4.5,49.4&#10;&#9;&#9;l21.6-17.6L129.1,259.2z"/>
	<rect x="170.3" y="378.2" class="st2_police-16 targetColor" width="141.1" height="45.4" style="fill: rgb(219, 170, 97);"/>
	<path class="st2_police-16 targetColor" d="M187.9,207.6c-4.7,1.3-9.2,3.1-13.5,5.4c-6,3.5-45.7,36.8-45.7,36.8l24.7,38.1l47.4-32.6L187.9,207.6z" style="fill: rgb(219, 170, 97);"/>
	<polygon class="st2_police-16 targetColor" points="154.2,290.5 126.3,245.6 113.8,253.5 140.9,299.8 &#9;" style="fill: rgb(219, 170, 97);"/>
	<path class="st1_police-16" d="M140.9,300.5h-0.1c-0.2,0-0.4-0.2-0.5-0.3l-27.1-46.3c-0.2-0.3-0.1-0.7,0.2-0.9l12.4-7.9&#10;&#9;&#9;c0.2-0.1,0.3-0.1,0.5-0.1c0.2,0,0.3,0.2,0.4,0.3l27.9,44.8c0.2,0.3,0.1,0.7-0.2,0.9l-13.3,9.4C141.2,300.5,141.1,300.5,140.9,300.5&#10;&#9;&#9;z M114.8,253.7l26.4,45.1l12.1-8.6l-27.2-43.7L114.8,253.7z"/>
	<path class="st2_police-16 targetColor" d="M306.2,215.6c3.8,3.1,7.3,6.5,10.3,10.4c4.2,5.6,20,56.8,20,56.8L306.2,303V215.6z" style="fill: rgb(219, 170, 97);"/>
	<polygon class="st2_police-16 targetColor" points="293.6,298.4 339.3,277.8 345.4,291.2 293.3,316.3 &#9;" style="fill: rgb(219, 170, 97);"/>
	<path class="st1_police-16" d="M293.3,317c-0.1,0-0.3,0-0.4-0.1c-0.2-0.1-0.3-0.4-0.3-0.6l0.2-17.9c0-0.3,0.2-0.5,0.4-0.6l45.8-20.5&#10;&#9;&#9;c0.3-0.2,0.8,0,0.9,0.3c0,0,0,0,0,0l6.1,13.4c0.2,0.3,0,0.8-0.3,0.9l-52.1,25C293.5,317,293.4,317,293.3,317z M294.2,298.8&#10;&#9;&#9;l-0.2,16.4l50.5-24.3l-5.5-12.2L294.2,298.8z"/>
	<polygon class="st2_police-16 targetColor" points="213.3,192.3 268.4,192.3 261,209.6 228.9,209.6 213.3,202.2 &#9;" style="fill: rgb(219, 170, 97);"/>
	<path class="st1_police-16" d="M261,210.3h-32.1c-0.1,0-0.2,0-0.3-0.1l-15.6-7.5c-0.2-0.1-0.4-0.4-0.4-0.6v-9.9c0-0.4,0.3-0.7,0.7-0.7&#10;&#9;&#9;c0,0,0,0,0,0h55.1c0.2,0,0.5,0.1,0.6,0.3c0.1,0.2,0.2,0.4,0.1,0.7l-7.4,17.4C261.5,210.2,261.3,210.3,261,210.3z M229,208.9h31.5&#10;&#9;&#9;l6.8-16H214v8.8L229,208.9z"/>
	<path class="st2_police-16 targetColor" d="M225.5,196.3c-10.6,0.7-21.1,3-31,6.9c-16.2,6.5-23.1,11.6-23.6,19s0,138,0,138h140.2V225.5&#10;&#9;&#9;c0-13.4-12.9-16.4-16.1-19.1S248.3,192.2,225.5,196.3z" style="fill: rgb(219, 170, 97);"/>
	<path class="st0_police-16" d="M276.4,148c0,0,8.6-30.7,3.5-37.1s-3.5,0.1-3.5,0.1c5-3.9-1.4-11.2-4.8-13.7c-2.7-1.8-5.6-3.1-8.7-4&#10;&#9;&#9;c-7.6-2.5-15.6-4.2-23.6-3.8s-16.1,3-22.1,8.3c-9.5,8.3-12.3,18.5-10.7,30.8c1.1,8.8,4.1,17.4,5,26c10.1,0.6,20.3,1.5,30.5,1.3&#10;&#9;&#9;C250,155.8,272.1,157.5,276.4,148z"/>
	<path class="st1_police-16" d="M250.2,156.7c-1.6,0-3,0-4.4,0c-1.5,0-2.8,0-3.9,0c-8.3,0.1-16.7-0.4-24.8-1l-5.8-0.4c-0.4,0-0.6-0.3-0.7-0.6&#10;&#9;&#9;c-0.6-4.5-1.4-9-2.5-13.5c-1-4.1-1.8-8.3-2.4-12.5c-1.7-13.4,1.8-23.3,11-31.4c5.7-5,13.7-8,22.5-8.4c7.1-0.3,14.9,0.9,23.9,3.8&#10;&#9;&#9;c3.2,0.9,6.2,2.3,8.9,4.1c2.6,1.9,6.8,6.5,6.9,10.6c0,0.4,0,0.8-0.1,1.2c0.6,0.6,1.2,1.3,1.7,1.9c5.3,6.7-3.1,36.8-3.4,37.8l0,0&#10;&#9;&#9;C273.7,155.8,260.4,156.7,250.2,156.7z M242.9,155.2h3c9.2,0.1,26.3,0.4,29.9-7.4c2.4-8.5,7.6-31.3,3.6-36.4&#10;&#9;&#9;c-0.5-0.6-0.8-1-1.1-1.3c-0.4,0.6-0.9,1.1-1.4,1.6l0,0c-0.3,0.2-0.8,0.2-1-0.1c-0.1-0.1-0.1-0.3-0.1-0.4c-0.3-1.6-0.4-3.1,0.6-3.6&#10;&#9;&#9;c0.4-0.2,0.8-0.1,1.2,0.1v-0.2c-0.1-3.3-3.8-7.6-6.3-9.4c-2.6-1.7-5.5-3-8.5-3.9c-8.8-2.8-16.4-4.1-23.4-3.7&#10;&#9;&#9;c-8.5,0.4-16.2,3.3-21.6,8.1c-8.8,7.7-12.1,17.3-10.5,30.1c0.6,4.2,1.4,8.3,2.4,12.4c1.1,4.3,1.9,8.7,2.5,13.1l5.2,0.3&#10;&#9;&#9;c8.1,0.5,16.4,1.1,24.7,0.9L242.9,155.2z M276.4,148L276.4,148z M276.9,108.9c0,0.2,0,0.3,0,0.5c0.1-0.1,0.2-0.3,0.2-0.4&#10;&#9;&#9;C277.1,109,277.1,108.9,276.9,108.9L276.9,108.9z"/>
	<path class="st0_police-16" d="M266.8,151.1c2.1-11,20.6-13.1,19.2-0.1c-0.5,4.4-2,9-5.3,12s-8.4,4.4-12.4,2.4"/>
	<path class="st1_police-16" d="M272.5,167.1c-1.5,0-3.1-0.3-4.5-1c-0.4-0.1-0.6-0.6-0.4-0.9s0.6-0.6,0.9-0.4c0,0,0.1,0,0.1,0&#10;&#9;&#9;c3.5,1.7,8.3,0.8,11.6-2.3c3.5-3.4,4.7-8.2,5.1-11.6c0.7-6.4-3.6-7.8-5.5-8.1c-4.9-0.7-11.1,2.5-12.2,8.4c-0.1,0.4-0.4,0.7-0.8,0.6&#10;&#9;&#9;c-0.4-0.1-0.7-0.4-0.6-0.8c0,0,0-0.1,0-0.1c1.3-6.6,8.3-10.3,13.9-9.5c3.7,0.6,7.4,3.4,6.8,9.6c-0.4,3.7-1.6,8.8-5.5,12.5&#10;&#9;&#9;C278.8,165.8,275.7,167.1,272.5,167.1z"/>
	<path class="st0_police-16" d="M221.2,149.5c-1.4-11.1-19.6-14.4-19.1-1.4c0.2,4.5,1.4,9.1,4.5,12.4s8,5,12.2,3.3"/>
	<path class="st1_police-16" d="M215.2,165.1c-3.5-0.1-6.9-1.6-9.2-4.2c-3.6-3.9-4.5-9.2-4.6-12.8c-0.2-6.3,3.7-8.9,7.4-9.1&#10;&#9;&#9;c5.5-0.4,12.3,3.7,13.2,10.4c0.1,0.4-0.1,0.8-0.5,0.9c-0.4,0.1-0.8-0.1-0.9-0.5c0-0.1,0-0.1,0-0.2c-0.7-5.9-6.7-9.6-11.6-9.2&#10;&#9;&#9;c-1.9,0.1-6.3,1.2-6.1,7.6c0.1,3.4,0.9,8.3,4.3,11.9c3.1,3.3,7.7,4.6,11.4,3.1c0.4-0.1,0.8,0,0.9,0.4c0.1,0.4,0,0.8-0.4,0.9&#10;&#9;&#9;C217.7,164.9,216.5,165.1,215.2,165.1z"/>
	<path class="st0_police-16" d="M220.9,204.6c0,0,8.4,4.3,22.9,4.8s16.8-3.4,16.8-3.4l-0.3-7.7l-0.8-18l-0.8-16.8l-33-1.1l-1.6,13.7l-0.5,4.4&#10;&#9;&#9;L220.9,204.6z"/>
	<path class="st1_police-16" d="M246.2,210.2c-0.8,0-1.6,0-2.5-0.1c-14.4-0.5-22.8-4.7-23.2-4.9c-0.3-0.1-0.4-0.4-0.4-0.7l4.9-42.3&#10;&#9;&#9;c0.1-0.4,0.4-0.6,0.8-0.6l33,1.1c0.4,0,0.7,0.3,0.7,0.7l1.9,42.5c0,0.1,0,0.3-0.1,0.4C260.9,206.8,258.5,210.2,246.2,210.2z&#10;&#9;&#9; M221.6,204.2c1.9,0.9,9.9,4.1,22.1,4.5c12,0.4,15.4-2.3,16.1-2.9l-1.9-41.6l-31.7-1.1L221.6,204.2z"/>
	<path class="st1_police-16" d="M223.6,180.5c2.4,4.1,6.4,7.4,10.5,9.9c7,4.2,17.4,9,26.1,8l-0.8-18c-6.3,0.6-12.7,0.4-19-0.5&#10;&#9;&#9;c-5.6-0.7-11.3-1.4-16.3-3.8L223.6,180.5z"/>
	<path class="st1_police-16" d="M257.8,199.1c-8.9,0-18.7-5-24-8.2c-5-3-8.6-6.4-10.8-10.1c-0.1-0.1-0.1-0.3-0.1-0.4l0.5-4.4&#10;&#9;&#9;c0-0.2,0.2-0.4,0.4-0.5c0.2-0.1,0.4-0.1,0.6,0c5.1,2.4,10.9,3.1,16.1,3.7c6.2,0.9,12.6,1.1,18.9,0.5c0.2,0,0.4,0,0.5,0.2&#10;&#9;&#9;c0.1,0.1,0.2,0.3,0.2,0.5l0.8,18c0,0.4-0.2,0.7-0.6,0.7C259.5,199.1,258.6,199.2,257.8,199.1z M224.4,180.3c2,3.4,5.4,6.6,10.1,9.4&#10;&#9;&#9;c5.5,3.3,16,8.7,25,7.9l-0.7-16.6c-6.2,0.5-12.3,0.3-18.4-0.6c-5-0.6-10.6-1.3-15.6-3.4L224.4,180.3z"/>
	<path class="st0_police-16" d="M240.5,183.9l2.9,0.1c14,0.5,25.7-10.4,26.1-24.4c0,0,0,0,0,0l1.4-40l-29.4,6.2l-24.2-8.1l-1.4,40&#10;&#9;&#9;C215.6,171.7,226.5,183.4,240.5,183.9z"/>
	<path class="st1_police-16" d="M244.3,184.7c-0.3,0-0.6,0-0.9,0l-2.9-0.1c-14.4-0.5-25.6-12.6-25.1-26.9l1.4-40c0-0.2,0.1-0.4,0.3-0.6&#10;&#9;&#9;c0.2-0.1,0.4-0.2,0.6-0.1l24,8l29.2-6.2c0.2,0,0.4,0,0.6,0.2c0.2,0.1,0.3,0.4,0.3,0.6l-1.4,40C269.8,173.6,258.3,184.7,244.3,184.7&#10;&#9;&#9;z M218.2,118.7l-1.4,39.1c-0.5,13.6,10.1,24.9,23.7,25.4l0,0l2.9,0.1c13.6,0.4,24.9-10.2,25.4-23.7l1.4-39.1l-28.4,6&#10;&#9;&#9;c-0.1,0-0.3,0-0.4,0L218.2,118.7z"/>
	<path class="st1_police-16" d="M242.5,166c-1.7,0-3.3-0.1-5-0.4c-0.4-0.1-0.7-0.4-0.6-0.8c0,0,0,0,0,0c0.1-0.4,0.4-0.7,0.8-0.6c0,0,0,0,0,0&#10;&#9;&#9;c2.4,0.3,4.8,0.4,7.1,0.2c0.1,0,0.1,0,0.2-0.1c1.2-1.9-1.5-12-3.6-17.9c-0.1-0.4,0-0.8,0.4-0.9c0.4-0.1,0.8,0,0.9,0.4&#10;&#9;&#9;c0,0,0,0,0,0.1c0.9,2.7,5.4,16.1,3.4,19.2c-0.3,0.5-0.7,0.7-1.3,0.8C244.1,165.9,243.3,166,242.5,166z"/>
	
		<ellipse transform="matrix(3.472546e-02 -0.9994 0.9994 3.472546e-02 102.2596 394.7947)" class="st1_police-16" cx="255.5" cy="144.5" rx="4.3" ry="1.7"/>
	
		<ellipse transform="matrix(3.472503e-02 -0.9994 0.9994 3.472503e-02 82.3972 370.5552)" class="st1_police-16" cx="233" cy="142.6" rx="4.3" ry="1.7"/>
	<path class="st1_police-16" d="M253.9,175.4c-0.1,0-0.1,0-0.2,0c-0.2,0-16.9-5.5-27-5.5c-0.4,0-0.7-0.3-0.7-0.7l0,0c0-0.4,0.3-0.7,0.7-0.7&#10;&#9;&#9;c10.3,0,26.7,5.3,27.4,5.5c0.4,0.1,0.6,0.5,0.5,0.9c0,0,0,0,0,0C254.4,175.2,254.2,175.4,253.9,175.4z"/>
	<path class="st2_police-16 targetColor" d="M205.5,113.5l-14.8-15.6l19.8-13.2c0,0,24.9-0.2,33.3-10.8c0,0,19.9,13.4,34.7,11.6c0,0,15.3,11.6,19.3,11.5&#10;&#9;&#9;l-15.7,17.6L205.5,113.5z" style="fill: rgb(219, 170, 97);"/>
	<path class="st1_police-16" d="M282.2,115.3L282.2,115.3l-76.6-1.1c-0.2,0-0.4-0.1-0.5-0.2l-14.8-15.6c-0.1-0.2-0.2-0.4-0.2-0.6&#10;&#9;&#9;c0-0.2,0.1-0.4,0.3-0.5l19.8-13.2c0.1-0.1,0.2-0.1,0.4-0.1c0.2,0,24.7-0.3,32.8-10.5c0.2-0.3,0.6-0.3,0.9-0.1&#10;&#9;&#9;c0.2,0.1,19.8,13.2,34.2,11.5c0.2,0,0.4,0,0.5,0.1c6.1,4.6,16.2,11.4,18.9,11.3c0.4,0,0.7,0.3,0.7,0.7c0,0.2-0.1,0.3-0.2,0.5&#10;&#9;&#9;l-15.7,17.6C282.5,115.2,282.4,115.3,282.2,115.3z M205.8,112.8l76,1.1l14.6-16.4c-5-1.4-16-9.6-18.1-11.2&#10;&#9;&#9;c-13.7,1.4-31-9.3-34.3-11.4c-8.5,9.9-30.7,10.5-33.3,10.5L191.8,98L205.8,112.8z"/>
	<path class="st0_police-16" d="M243.4,105.3c0,0-6.4-2.3-7.7-4s-2.2-4-1.1-5.7s1.9-2.6,1.9-4.3s-2.7-4-2.7-4l3.3-3.7c0.6,0.9,1.6,1.4,2.6,1.2&#10;&#9;&#9;c1.4-0.3,2.7-1,3.7-2c0.8,1.1,2,1.7,3.3,1.8c1.1,0.1,2.2-0.3,3.1-1.1l3.6,3.6c0,0-2.9,2.4-2.4,5.4s2.2,2.7,1.7,6.6&#10;&#9;&#9;S243.4,105.3,243.4,105.3z"/>
	<path class="st3_police-16" d="M243,102.2c0,0-4.4-1.7-5.3-2.8c-0.8-1-0.8-2.4,0-3.4c0.8-1.1,1.2-2.4,1.3-3.7c-0.1-1.8-0.6-3.6-1.6-5.2&#10;&#9;&#9;c2,0.5,4.2,0.2,6-0.8c1.8,1.1,4,1.4,6,0.9c-0.9,1.3-1.4,2.8-1.5,4.4c0.2,2.1,1.7,3.9,1.7,5.2s-0.1,2-0.8,2.5S243,102.2,243,102.2z"/>
	<path class="st1_police-16" d="M204.6,121c0,0,17.8,16.9,39.6,16c13.4-0.7,26.2-5.3,37-13.2v-9.7c0,0-13-3-20.1-4.2s-33.6-0.5-37.9,0&#10;&#9;&#9;s-18.7,3.1-18.7,3.1V121z"/>
	<path class="st1_police-16" d="M242.6,137.7c-21.1,0-38.2-16-38.4-16.2c-0.1-0.1-0.2-0.3-0.2-0.5v-8c0-0.3,0.2-0.6,0.6-0.7&#10;&#9;&#9;c0.6-0.1,14.4-2.6,18.7-3.1c4.6-0.5,31.1-1.2,38.1,0c7,1.2,20,4.1,20.1,4.2c0.3,0.1,0.5,0.4,0.5,0.7v9.7c0,0.2-0.1,0.4-0.3,0.5&#10;&#9;&#9;c-10.9,8-23.9,12.6-37.4,13.4C243.7,137.7,243.1,137.7,242.6,137.7z M205.3,120.7c2.1,1.9,18.8,16.5,38.9,15.6&#10;&#9;&#9;c13.1-0.7,25.7-5.2,36.3-12.8v-8.8c-2.5-0.6-13.4-3-19.5-4c-6.9-1.1-33.1-0.5-37.7,0c-3.8,0.4-15.3,2.5-18,3L205.3,120.7z"/>
	<path class="st0_police-16" d="M281.3,124.5L281.3,124.5c-11-0.6-76-2.7-76.6-2.8c-0.4,0-0.7-0.3-0.7-0.7c0,0,0,0,0,0c0-0.4,0.3-0.7,0.7-0.7&#10;&#9;&#9;c0.7,0,65.6,2.1,76.6,2.8c0.4,0,0.7,0.4,0.6,0.8C281.9,124.2,281.7,124.4,281.3,124.5L281.3,124.5z"/>
	<path class="st2_police-16 targetColor" d="M213.3,192.3c0.7,0,27.6,17.2,27.6,17.2l-6.2,5.4l-27.9-6.6L213.3,192.3z" style="fill: rgb(219, 170, 97);"/>
	<path class="st1_police-16" d="M234.7,215.5h-0.2l-27.9-6.6c-0.2,0-0.4-0.2-0.5-0.4c-0.1-0.2-0.1-0.4,0-0.6l6.4-16c0.1-0.3,0.4-0.4,0.6-0.4&#10;&#9;&#9;c0.3,0,0.9,0,28,17.3c0.2,0.1,0.3,0.3,0.3,0.5c0,0.2-0.1,0.4-0.2,0.6l-6.2,5.4C235.1,215.5,234.9,215.5,234.7,215.5z M207.7,207.7&#10;&#9;&#9;l26.8,6.3l5.2-4.5c-9.6-6.1-23.1-14.6-26.1-16.3L207.7,207.7z"/>
	<path class="st2_police-16 targetColor" d="M268.4,192.3c-0.7,0-27.7,17.2-27.7,17.2l6.2,5.4l27.9-6.6L268.4,192.3z" style="fill: rgb(219, 170, 97);"/>
	<path class="st1_police-16" d="M246.9,215.5c-0.2,0-0.3-0.1-0.4-0.2l-6.2-5.4c-0.2-0.1-0.3-0.4-0.2-0.6c0-0.2,0.1-0.4,0.3-0.5&#10;&#9;&#9;c27.2-17.3,27.8-17.3,28-17.3c0.3,0,0.5,0.2,0.6,0.4l6.5,16c0.1,0.2,0.1,0.4,0,0.6c-0.1,0.2-0.3,0.3-0.5,0.4l-27.9,6.6L246.9,215.5&#10;&#9;&#9;z M241.9,209.5l5.2,4.5l26.8-6.3l-5.9-14.5C265,194.9,251.4,203.4,241.9,209.5L241.9,209.5z"/>
	<path class="st1_police-16" d="M240.7,360.9c-0.4,0-0.7-0.3-0.7-0.7l0,0V209.4c0-0.4,0.4-0.7,0.8-0.6c0.3,0,0.6,0.3,0.6,0.6v150.8&#10;&#9;&#9;C241.5,360.6,241.1,360.9,240.7,360.9z"/>
	<path class="st2_police-16 targetColor" d="M170.9,354.4c0,0-1.2-122.8,0-121.5" style="fill: rgb(219, 170, 97);"/>
	<path class="st1_police-16" d="M170.9,355.1c-0.4,0-0.7-0.3-0.7-0.7c0,0,0,0,0,0c0-0.3-0.3-30.6-0.5-60.6c-0.3-61.1,0.2-61.3,0.9-61.6&#10;&#9;&#9;c0.3-0.1,0.6,0,0.8,0.1c0.2,0.2,0.3,0.6,0.1,0.9c-0.8,4.7-0.2,88.8,0.1,121.1C171.6,354.8,171.3,355.1,170.9,355.1&#10;&#9;&#9;C170.9,355.1,170.9,355.1,170.9,355.1L170.9,355.1z"/>
	<path class="st2_police-16 targetColor" d="M311.4,354.4c0,0-1.2-122.8,0-121.5" style="fill: rgb(219, 170, 97);"/>
	<path class="st1_police-16" d="M311.4,355.1c-0.4,0-0.7-0.3-0.7-0.7l0,0c0-0.3-0.3-30.6-0.5-60.6c-0.3-61.1,0.2-61.3,0.9-61.6&#10;&#9;&#9;c0.3-0.1,0.6,0,0.8,0.1c0.2,0.2,0.3,0.6,0.1,0.9c-0.8,4.7-0.2,88.8,0.1,121.1C312.1,354.8,311.8,355.1,311.4,355.1L311.4,355.1z"/>
	<rect x="167.4" y="360.2" class="st3_police-16" width="143.5" height="18.1"/>
	<path class="st1_police-16" d="M310.9,379H167.4c-0.4,0-0.7-0.3-0.7-0.7v-18.1c0-0.4,0.3-0.7,0.7-0.7l0,0h143.5c0.4,0,0.7,0.3,0.7,0.7l0,0v18&#10;&#9;&#9;C311.6,378.7,311.3,379,310.9,379C310.9,379,310.9,379,310.9,379z M168.1,377.5h142.1v-16.6H168.1V377.5z"/>
	<rect x="220.8" y="360.2" class="st0_police-16" width="36.6" height="18.1"/>
	<path class="st1_police-16" d="M257.4,379h-36.6c-0.4,0-0.7-0.3-0.7-0.7v-18.1c0-0.4,0.3-0.7,0.7-0.7l0,0h36.6c0.4,0,0.7,0.3,0.7,0.7l0,0v18&#10;&#9;&#9;C258.2,378.7,257.9,379,257.4,379C257.4,379,257.4,379,257.4,379z M221.6,377.5h35.2v-16.6h-35.2V377.5z"/>
	<path class="st1_police-16" d="M240.9,424.4c-0.4,0-0.7-0.3-0.7-0.7v-15.1l0,0v-30.3c0-0.4,0.3-0.7,0.7-0.7l0,0h6.8c0.4,0,0.7,0.3,0.7,0.7&#10;&#9;&#9;c0,0,0,0,0,0l-1,25.9c0,0.2-0.1,0.4-0.3,0.5l-5.6,4.2v14.8C241.6,424,241.3,424.3,240.9,424.4z M241.6,379v28.1l4.4-3.3L247,379&#10;&#9;&#9;L241.6,379z"/>
	<path class="st1_police-16" d="M171.1,426.1l15.3-92.6c0.4-3.1-1.8-5.9-4.9-6.3c-2.9-0.4-5.7,1.6-6.3,4.5l-15.6,94.4H171.1z"/>
	<path class="st1_police-16" d="M171.1,426.8h-11.5c-0.2,0-0.4-0.1-0.5-0.2c-0.1-0.2-0.2-0.4-0.2-0.6l15.6-94.4c0.6-3.5,3.8-5.8,7.3-5.2&#10;&#9;&#9;s5.8,3.8,5.2,7.3l0,0l-15.3,92.6C171.7,426.5,171.4,426.8,171.1,426.8z M160.5,425.4h10.1l15.2-92c0.4-2.7-1.4-5.2-4.1-5.7&#10;&#9;&#9;c-2.7-0.4-5.2,1.4-5.7,4.1L160.5,425.4z"/>
	<path class="st1_police-16" d="M142.7,363.1l0.5-3.2c0.4-2.2,2.4-3.7,4.6-3.3l27.8,4.6c2.2,0.4,3.7,2.4,3.3,4.6l-0.5,3.2&#10;&#9;&#9;c-0.4,2.2-2.4,3.7-4.6,3.3l-27.8-4.6C143.8,367.4,142.4,365.3,142.7,363.1z"/>
	<path class="st1_police-16" d="M173.1,372.8c-0.3,0-0.7,0-1-0.1l-24.6-4.1c-3.5-0.6-5.8-3.8-5.2-7.3c0.6-3.5,3.8-5.8,7.3-5.2l0,0l24.6,4.1&#10;&#9;&#9;c3.5,0.6,5.8,3.8,5.2,7.3l0,0C178.9,370.6,176.3,372.8,173.1,372.8L173.1,372.8z M148.6,357.4c-2.4,0-4.5,1.8-4.9,4.1&#10;&#9;&#9;c-0.4,2.7,1.4,5.2,4.1,5.7l24.6,4.1c2.7,0.4,5.2-1.4,5.7-4.1l0,0c0.4-2.7-1.4-5.2-4.1-5.7l-24.6-4.1&#10;&#9;&#9;C149.1,357.5,148.8,357.4,148.6,357.4z"/>
	<path class="st1_police-16" d="M146.4,165.8l24.5-11.9c1.5-0.7,3.4-0.1,4.1,1.4l28.1,57.7c0.7,1.5,0.1,3.4-1.4,4.1l-24.5,11.9&#10;&#9;&#9;c-1.5,0.7-3.4,0.1-4.1-1.4L145,169.9C144.2,168.4,144.9,166.5,146.4,165.8z"/>
	<path class="st1_police-16" d="M176.4,229.7c-1.9,0-3.7-1.1-4.5-2.8l-27-55.5c-1.2-2.5-0.2-5.5,2.3-6.7c0,0,0,0,0.1,0l22.3-10.9&#10;&#9;&#9;c2.5-1.2,5.5-0.2,6.7,2.3c0,0,0,0,0,0.1l27,55.5c1.2,2.5,0.2,5.5-2.2,6.7c0,0,0,0-0.1,0l-22.3,10.8&#10;&#9;&#9;C177.9,229.5,177.2,229.7,176.4,229.7z M171.7,154.7c-0.5,0-1.1,0.1-1.6,0.4l-22.3,10.8c-0.9,0.4-1.5,1.2-1.8,2.1&#10;&#9;&#9;c-0.3,0.9-0.2,1.9,0.2,2.8l27,55.5c0.4,0.9,1.2,1.5,2.1,1.9c0.9,0.3,1.9,0.3,2.8-0.2l22.3-10.8l0,0c1.8-0.9,2.6-3,1.7-4.8&#10;&#9;&#9;c0,0,0,0,0,0l-27-55.5C174.4,155.4,173.1,154.6,171.7,154.7L171.7,154.7z"/>
	<rect x="161.6" y="152.6" transform="matrix(0.8991 -0.4377 0.4377 0.8991 -51.4915 87.7653)" class="st1_police-16" width="6" height="6"/>
	<path class="st1_police-16" d="M163.2,160.3c-0.3,0-0.5-0.1-0.6-0.4l-2.6-5.4c-0.2-0.3,0-0.8,0.3-0.9l5.4-2.6c0.2-0.1,0.4-0.1,0.5,0&#10;&#9;&#9;c0.2,0.1,0.3,0.2,0.4,0.4l2.6,5.4c0.2,0.3,0,0.8-0.3,0.9l-5.4,2.6C163.5,160.3,163.4,160.3,163.2,160.3z M161.6,154.5l2,4.1l4.1-2&#10;&#9;&#9;l-2-4.1L161.6,154.5z"/>
	
		<rect x="145.7" y="130.9" transform="matrix(0.8991 -0.4377 0.4377 0.8991 -52.3616 79.9166)" class="st1_police-16" width="2.9" height="45.4"/>
	<path class="st1_police-16" d="M155.8,175.3c-0.3,0-0.5-0.2-0.6-0.4l-19.9-40.8c-0.2-0.3,0-0.8,0.3-0.9l2.6-1.3c0.2-0.1,0.4-0.1,0.5,0&#10;&#9;&#9;c0.2,0.1,0.3,0.2,0.4,0.4L159,173c0.1,0.2,0.1,0.4,0,0.5c-0.1,0.2-0.2,0.3-0.4,0.4l-2.6,1.3C156,175.2,155.9,175.3,155.8,175.3z&#10;&#9;&#9; M136.9,134.1l19.2,39.6l1.4-0.7l-19.2-39.5L136.9,134.1z"/>
	<path class="st0_police-16" d="M153.5,205.6c0,0-68.3,74.4-63.5,94.2s28,21.1,42.8,1.8s34-79.5,34-79.5s13.6-14.2,15.7-24.6&#10;&#9;&#9;c2.7-13.4-3-33.9-15.4-23.3C162.3,178.4,152.6,191.3,153.5,205.6z"/>
	<path class="st1_police-16" d="M108.8,316.1c-1.5,0-2.9-0.1-4.3-0.4c-7.5-1.6-13-7.3-15.1-15.7c-4.8-19.6,58.5-89.3,63.4-94.6&#10;&#9;&#9;c-0.7-13.8,8.2-26.8,14-31.7c4.7-4,8.2-3.4,10.2-2.2c6.1,3.6,8.2,16.7,6.3,26.2c-2.1,10.1-14.4,23.4-15.8,24.9&#10;&#9;&#9;c-1.1,3.5-19.8,60.9-34.1,79.6C126.5,311,117.4,316.1,108.8,316.1z M173.6,172c-1.8,0-3.8,0.9-6,2.8c-3.7,3.2-14.3,15.8-13.4,30.8&#10;&#9;&#9;c0,0.2-0.1,0.4-0.2,0.5c-0.7,0.7-68,74.4-63.3,93.5c1.9,7.8,7,13.1,14,14.6c9.3,2,19.8-3.1,27.5-13.1c14.6-19,33.7-78.7,33.9-79.3&#10;&#9;&#9;c0-0.1,0.1-0.2,0.2-0.3c0.1-0.1,13.5-14.2,15.5-24.3c1.8-9-0.2-21.5-5.6-24.7C175.5,172.2,174.6,172,173.6,172z"/>
	<circle class="st1_police-16" cx="246.8" cy="230.6" r="2.3"/>
	<circle class="st1_police-16" cx="246.8" cy="262.7" r="2.3"/>
	<circle class="st1_police-16" cx="246.8" cy="294.9" r="2.3"/>
	<circle class="st1_police-16" cx="246.8" cy="327" r="2.3"/>
	<rect x="188.7" y="240.6" class="st0_police-16" width="41.6" height="9.4"/>
	<rect x="191.3" y="275.1" class="st2_police-16 targetColor" width="36.3" height="38.1" style="fill: rgb(219, 170, 97);"/>
	<path class="st1_police-16" d="M227.6,313.9h-36.4c-0.4,0-0.7-0.3-0.7-0.7v-38.1c0-0.4,0.3-0.7,0.7-0.7l0,0h36.3c0.4,0,0.7,0.3,0.7,0.7v38.1&#10;&#9;&#9;C228.4,313.6,228,313.9,227.6,313.9z M192,312.5h34.9v-36.6H192V312.5z"/>
	<rect x="202.4" y="275.1" class="st2_police-16 targetColor" width="14.6" height="38.1" style="fill: rgb(219, 170, 97);"/>
	<path class="st1_police-16" d="M217,313.9h-14.6c-0.4,0-0.7-0.3-0.7-0.7v-38.1c0-0.4,0.3-0.7,0.7-0.7l0,0H217c0.4,0,0.7,0.3,0.7,0.7v38.1&#10;&#9;&#9;C217.7,313.6,217.4,313.9,217,313.9z M203.1,312.5h13.2v-36.6h-13.2L203.1,312.5z"/>
	<polygon class="st2_police-16 targetColor" points="231.4,276.9 209.8,283.2 188.2,276.9 188.2,264.4 231.4,264.4 &#9;" style="fill: rgb(219, 170, 97);"/>
	<path class="st1_police-16" d="M209.8,284c-0.1,0-0.1,0-0.2,0l-21.6-6.5c-0.3-0.1-0.5-0.4-0.5-0.7v-12.5c0-0.4,0.3-0.7,0.7-0.7l0,0h43.3&#10;&#9;&#9;c0.4,0,0.7,0.3,0.7,0.7v12.5c0,0.3-0.2,0.6-0.5,0.7l-21.7,6.4C209.9,284,209.9,284,209.8,284z M188.9,276.4l20.9,6.1l20.9-6.1&#10;&#9;&#9;v-11.3h-41.8V276.4z M231.4,276.9L231.4,276.9z"/>
	<circle class="st1_police-16" cx="209.8" cy="274.7" r="1.9"/>
	<rect x="260" y="275.1" class="st2_police-16 targetColor" width="36.3" height="38.1" style="fill: rgb(219, 170, 97);"/>
	<path class="st1_police-16" d="M296.3,313.9H260c-0.4,0-0.7-0.3-0.7-0.7v-38.1c0-0.4,0.3-0.7,0.7-0.7l0,0h36.3c0.4,0,0.7,0.3,0.7,0.7l0,0&#10;&#9;&#9;v38.1C297,313.6,296.7,313.9,296.3,313.9z M260.7,312.5h34.9v-36.6h-34.9V312.5z"/>
	<rect x="271.1" y="275.1" class="st2_police-16 targetColor" width="14.6" height="38.1" style="fill: rgb(219, 170, 97);"/>
	<path class="st1_police-16" d="M285.7,313.9h-14.6c-0.4,0-0.7-0.3-0.7-0.7v-38.1c0-0.4,0.3-0.7,0.7-0.7l0,0h14.6c0.4,0,0.7,0.3,0.7,0.7l0,0&#10;&#9;&#9;v38.1C286.4,313.6,286.1,313.9,285.7,313.9z M271.8,312.5H285v-36.6h-13.2V312.5z"/>
	<polygon class="st2_police-16 targetColor" points="300.1,276.9 278.5,283.2 256.8,276.9 256.8,264.4 300.1,264.4 &#9;" style="fill: rgb(219, 170, 97);"/>
	<path class="st1_police-16" d="M278.5,284h-0.2l-21.6-6.4c-0.3-0.1-0.5-0.4-0.5-0.7v-12.5c0-0.4,0.3-0.7,0.7-0.7l0,0h43.3&#10;&#9;&#9;c0.4,0,0.7,0.3,0.7,0.7l0,0v12.5c0,0.3-0.2,0.6-0.5,0.7l-21.6,6.4C278.6,284,278.5,284,278.5,284z M257.6,276.4l20.9,6.1l20.9-6.1&#10;&#9;&#9;v-11.3h-41.8V276.4z M300.1,276.9L300.1,276.9z"/>
	<circle class="st1_police-16" cx="278.5" cy="274.7" r="1.9"/>
	<path class="st1_police-16" d="M330.9,313.6c-0.2,0-0.3-0.1-0.4-0.1c-0.3-0.2-0.4-0.7-0.1-1l14.8-19.5c0.2-0.3,0.7-0.4,1-0.1&#10;&#9;&#9;c0.3,0.2,0.4,0.7,0.1,1l-14.8,19.5C331.3,313.5,331.1,313.6,330.9,313.6z"/>
	<path class="st1_police-16" d="M311.4,398c-4,0.2-7.9-1.4-10.7-4.2c-5.5-5.7-5.2-15.2-5.2-15.6c0-0.4,0.4-0.7,0.8-0.7s0.7,0.4,0.7,0.8l0,0&#10;&#9;&#9;c0,0.1-0.3,9.2,4.8,14.5c2.5,2.6,6.1,3.9,9.7,3.8c0.4,0,0.7,0.3,0.7,0.7c0,0,0,0,0,0C312.2,397.7,311.8,398,311.4,398z"/>
	<path class="st1_police-16" d="M174.1,398c-0.4,0-0.7-0.3-0.7-0.7l0,0c0-0.4,0.3-0.7,0.7-0.7c3.6,0.2,7.1-1.2,9.7-3.8&#10;&#9;&#9;c5.1-5.3,4.8-14.4,4.8-14.5c0-0.4,0.3-0.7,0.7-0.8c0.4,0,0.7,0.3,0.8,0.7c0,0.4,0.3,9.8-5.2,15.6C182,396.6,178.1,398.2,174.1,398z&#10;&#9;&#9;"/>
	<path class="st0_police-16" d="M278.2,253.8c0,0-8-2.8-9.6-5.1s-2.7-5-1.4-7.2s2.4-3.2,2.4-5.4s-3.4-5-3.4-5l4.1-4.6c0.7,1.1,2,1.7,3.3,1.5&#10;&#9;&#9;c2.3-0.3,4.6-2.5,4.6-2.5c1,1.3,2.5,2.2,4.2,2.2c1.4,0.1,2.8-0.4,3.8-1.4l4.5,4.5c0,0-3.7,3-3,6.8s2.8,3.4,2.2,8.2&#10;&#9;&#9;S278.2,253.8,278.2,253.8z"/>
	<path class="st3_police-16" d="M277.7,249.8c0,0-5.5-2.1-6.6-3.5c-1.1-1.2-1.1-3,0-4.2c0.9-1.4,1.5-3,1.6-4.6c-0.1-2.3-0.8-4.5-2-6.4&#10;&#9;&#9;c2.5,0.6,5.2,0.2,7.5-1c2.2,1.4,4.9,1.8,7.5,1.2c0,0-2,2.9-1.7,5.5s2.2,4.9,2.2,6.5s-0.1,2.5-1,3.1S277.7,249.8,277.7,249.8z"/>
	<path class="st1_police-16" d="M286.6,354.1h28.3c3.4,0,6.1,2.8,6.1,6.1v46.3l0,0h-34.4l0,0V354.1L286.6,354.1z"/>
	<path class="st1_police-16" d="M321.1,407.2h-34.4c-0.4,0-0.7-0.3-0.7-0.7c0,0,0,0,0,0v-52.4c0-0.4,0.3-0.7,0.7-0.7h0h25.8&#10;&#9;&#9;c5.1,0,9.3,4.2,9.3,9.3v43.8C321.8,406.9,321.5,407.2,321.1,407.2C321.1,407.2,321.1,407.2,321.1,407.2z M287.3,405.8h33v-43.1&#10;&#9;&#9;c0-4.4-3.5-7.9-7.9-7.9l0,0h-25.1V405.8z"/>
	<circle class="st0_police-16" cx="308.5" cy="366.3" r="1.9"/>
	<path class="st0_police-16" d="M318.1,376.9h-23.4c-0.2,0-0.4-0.1-0.5-0.2c-0.1-0.1-0.2-0.3-0.2-0.5c0.1-3.6,0.2-13.3-1.2-15.6&#10;&#9;&#9;c-1-1.5-2.8-2.2-4.5-1.9c-0.4,0-0.8-0.2-0.8-0.6c0-0.4,0.2-0.7,0.5-0.8c2.3-0.4,4.7,0.6,6,2.6c1.7,2.7,1.5,12.6,1.5,15.6H318&#10;&#9;&#9;c0.4,0,0.7,0.4,0.6,0.8C318.6,376.6,318.4,376.9,318.1,376.9L318.1,376.9z"/>
</g>
<g id="Handcuffs_police-16">
	<path class="st1_police-16" d="M390.7,249c-11.2,0-20.2,9-20.2,20.2s9,20.2,20.2,20.2c11.2,0,20.2-9,20.2-20.2S401.9,249,390.7,249&#10;&#9;&#9;C390.7,249,390.7,249,390.7,249z M390.7,283c-7.6,0-13.8-6.2-13.8-13.8c0-7.6,6.2-13.8,13.8-13.8c7.6,0,13.8,6.2,13.8,13.8&#10;&#9;&#9;C404.5,276.8,398.4,283,390.7,283C390.8,283,390.7,283,390.7,283z"/>
	<path class="st1_police-16" d="M378.3,284.4H401l0,0v5.4c0,2.1-1.7,3.8-3.8,3.8h-15.1c-2.1,0-3.8-1.7-3.8-3.8L378.3,284.4L378.3,284.4z"/>
	<path class="st1_police-16" d="M410.9,338c0-11.2-9-20.2-20.2-20.2s-20.2,9-20.2,20.2c0,11.2,9,20.2,20.2,20.2c0,0,0,0,0,0&#10;&#9;&#9;C401.9,358.2,410.9,349.2,410.9,338z M404.5,338c0,7.6-6.2,13.8-13.8,13.8s-13.8-6.2-13.8-13.8s6.2-13.8,13.8-13.8h0&#10;&#9;&#9;C398.3,324.2,404.5,330.4,404.5,338C404.5,338,404.5,338,404.5,338z"/>
	<path class="st1_police-16" d="M382.1,313.6h15.1c2.1,0,3.8,1.7,3.8,3.8v5.4l0,0h-22.7l0,0v-5.4C378.3,315.3,380,313.6,382.1,313.6&#10;&#9;&#9;L382.1,313.6z"/>
	<path class="st1_police-16" d="M389.7,302.4c-0.4,0-0.7-0.3-0.7-0.7c0,0,0,0,0,0V296c0-0.4,0.3-0.7,0.7-0.7c0.4,0,0.7,0.3,0.7,0.7l0,0v5.7&#10;&#9;&#9;C390.4,302.1,390.1,302.4,389.7,302.4C389.7,302.4,389.7,302.4,389.7,302.4z"/>
	<path class="st1_police-16" d="M389.7,310.5c-0.4,0-0.7-0.3-0.7-0.7v-5.7c0-0.4,0.3-0.7,0.7-0.7c0,0,0,0,0,0c0.4,0,0.7,0.3,0.7,0.7v5.7&#10;&#9;&#9;C390.4,310.2,390.1,310.5,389.7,310.5L389.7,310.5z"/>
	<path class="st1_police-16" d="M389.7,307.6c-1.9,0-3.4-1.5-3.4-3.4v-1.1c0.1-1.9,1.7-3.3,3.6-3.2c1.7,0.1,3.1,1.5,3.2,3.2v1.1&#10;&#9;&#9;C393.1,306.1,391.6,307.6,389.7,307.6z M389.7,301.2c-1.1,0-1.9,0.9-1.9,1.9l0,0v1.1c-0.1,1.1,0.7,2,1.8,2.1c1.1,0.1,2-0.7,2.1-1.8&#10;&#9;&#9;c0-0.1,0-0.2,0-0.3v-1.1C391.6,302.1,390.8,301.2,389.7,301.2C389.7,301.2,389.7,301.2,389.7,301.2L389.7,301.2z"/>
	<path class="st1_police-16" d="M389.7,315.9c-1.9,0-3.4-1.5-3.4-3.4c0,0,0,0,0,0v-1.1c0.1-1.9,1.7-3.3,3.6-3.2c1.7,0.1,3.1,1.5,3.2,3.2v1.1&#10;&#9;&#9;C393.1,314.4,391.6,315.9,389.7,315.9z M389.7,309.4c-1.1,0-1.9,0.9-1.9,1.9l0,0v1.1c-0.1,1.1,0.7,2,1.8,2.1c1.1,0.1,2-0.7,2.1-1.8&#10;&#9;&#9;c0-0.1,0-0.2,0-0.3v-1.1C391.6,310.3,390.8,309.4,389.7,309.4C389.7,309.4,389.7,309.4,389.7,309.4L389.7,309.4z"/>
	<path class="st1_police-16" d="M389.7,298.9c-1.9,0-3.4-1.5-3.4-3.4v-1.1c0.1-1.9,1.7-3.3,3.6-3.2c1.7,0.1,3.1,1.5,3.2,3.2v1.1&#10;&#9;&#9;C393.1,297.4,391.6,298.9,389.7,298.9z M389.7,292.4c-1.1,0-1.9,0.9-1.9,1.9l0,0v1.1c0.1,1.1,1,1.9,2.1,1.8c1-0.1,1.7-0.8,1.8-1.8&#10;&#9;&#9;v-1.1C391.6,293.3,390.8,292.4,389.7,292.4C389.7,292.4,389.7,292.4,389.7,292.4z"/>
	<path class="st0_police-16" d="M379.1,286.4c-0.4,0-0.7-0.3-0.7-0.7V283c0-0.4,0.3-0.7,0.7-0.7h12.4c0.4,0,0.7,0.4,0.6,0.8&#10;&#9;&#9;c0,0.3-0.3,0.6-0.6,0.6h-11.7v2C379.8,286.1,379.5,286.4,379.1,286.4z"/>
	<path class="st0_police-16" d="M401.1,324.5h-8.7c-0.4,0-0.7-0.3-0.7-0.7c0,0,0,0,0,0c0-0.4,0.3-0.7,0.7-0.7h8v-2.4c0-0.4,0.3-0.7,0.7-0.7&#10;&#9;&#9;s0.7,0.3,0.7,0.7v3.1C401.8,324.2,401.5,324.5,401.1,324.5C401.1,324.5,401.1,324.5,401.1,324.5z"/>
</g>
<g id="left_thand_police-16">
	<path class="st0_police-16" d="M376.5,254.8c0.3,1.7,1.1,3.8,2.9,3.9c1.4,0.1,2.6-1.2,3-2.5c0.3-1.3,0.7-2.6,1.1-3.9c-0.3,1.3-0.3,2.7-0.1,4&#10;&#9;&#9;c0.2,1.4,1.1,2.5,2.4,3.1c1.6,0.5,3.4,0,4.5-1.3c1-1.3,1.6-2.8,1.6-4.4c0.2,1.6-0.1,3.2,0.2,4.8s1.4,3.3,3.1,3.4&#10;&#9;&#9;c1.5-0.1,2.8-0.9,3.5-2.1c1.1-1.6,1.9-3.4,2-5.4c-0.3,2-0.3,4.5,1.5,5.5c1.2,0.5,2.6,0.3,3.6-0.6c0.9-0.9,1.6-1.9,1.9-3.2&#10;&#9;&#9;c1.8-5.6,0.3-11.7-3.8-15.9c-1.3-1.3-2.8-2.3-4.5-3c-5.1-1.9-13.8-0.4-18.8,1.7C375.2,241.2,375.8,250,376.5,254.8z"/>
	<path class="st1_police-16" d="M395.5,262.5h-0.2c-2.1-0.1-3.4-2.2-3.7-4c0-0.2-0.1-0.5-0.1-0.7c-0.2,0.2-0.3,0.4-0.5,0.6&#10;&#9;&#9;c-1.3,1.5-3.4,2.1-5.2,1.5c-1.3-0.5-2.3-1.6-2.7-3c-0.6,1.4-2,2.4-3.5,2.4c-1.8-0.1-3.2-1.8-3.6-4.5c-0.8-5.2-1.3-14.2,4.7-16.8&#10;&#9;&#9;c5.5-2.3,14.2-3.6,19.4-1.7c1.8,0.7,3.4,1.8,4.8,3.2c4.3,4.4,5.8,10.8,3.9,16.6c-0.4,1.3-1.1,2.5-2.1,3.5c-1.2,1.1-2.9,1.3-4.4,0.7&#10;&#9;&#9;c-0.8-0.4-1.4-1.1-1.7-1.9c-0.3,0.6-0.6,1.1-1,1.6C398.7,261,397.3,262.5,395.5,262.5z M392,252.9c0.4,0,0.7,0.3,0.7,0.6&#10;&#9;&#9;c0.1,0.8,0.1,1.7,0.1,2.5c0,0.8,0,1.6,0.1,2.3c0.2,1.3,1.1,2.7,2.4,2.8s2.5-1.2,2.9-1.8c0.9-1.3,1.6-2.8,1.8-4.4l0.1-0.7&#10;&#9;&#9;c0.1-0.4,0.4-0.7,0.8-0.6s0.7,0.4,0.6,0.8l0,0c0,0.2,0,0.5-0.1,0.7c-0.2,2.2,0.2,3.5,1.2,4c1,0.4,2.1,0.2,2.8-0.5&#10;&#9;&#9;c0.8-0.8,1.4-1.7,1.7-2.8c1.7-5.3,0.3-11.1-3.6-15.1c-1.2-1.3-2.6-2.2-4.2-2.9c-4.7-1.7-13.2-0.5-18.3,1.7s-4.6,10.5-3.8,15.2l0,0&#10;&#9;&#9;c0.1,0.5,0.6,3.2,2.3,3.3c1.1,0.1,1.9-1,2.3-2c0.2-0.5,0.3-1.1,0.4-1.6c0.1-0.8,0.4-1.6,0.7-2.4c0.2-0.4,0.6-0.5,0.9-0.4&#10;&#9;&#9;c0.3,0.1,0.5,0.5,0.4,0.8c-0.2,1.2-0.3,2.5-0.1,3.7c0.2,1.1,0.9,2.1,2,2.5c1.3,0.4,2.8-0.1,3.7-1.1c0.9-1.1,1.4-2.5,1.5-4&#10;&#9;&#9;C391.4,253.1,391.7,252.8,392,252.9L392,252.9z"/>
</g>
</svg>