<svg version="1.1" id="Layer_1" xmlns="http://www.w3.org/2000/svg" xmlns:xlink="http://www.w3.org/1999/xlink" x="0px" y="0px" viewBox="0 0 500 500" style="width: 151px;" xml:space="preserve" data-imageid="personal-data-2" imageName="Personal Data" class="illustrations_image">
<style type="text/css">
	.st0_personal-data-2{fill:#FFFFFF;}
	.st1_personal-data-2{fill:#093F68;}
	.st2_personal-data-2{fill:#68E1FD;}
	.st3_personal-data-2{fill:#FFBC0E;}
	.st4_personal-data-2{fill:#70CC40;}
	.st5_personal-data-2{fill:#725858;}
	.st6_personal-data-2{fill:#FFC9B0;}
</style>
<g id="device_personal-data-2">
	<path class="st0_personal-data-2" d="M392.9,129.7v193.2c0,9.3-7.5,16.8-16.8,16.8c0,0,0,0,0,0H97.5c-9.3,0-16.8-7.5-16.8-16.8V129.7&#10;&#9;&#9;c0-9.3,7.5-16.8,16.8-16.8h278.6C385.4,112.9,392.9,120.4,392.9,129.7C392.9,129.7,392.9,129.7,392.9,129.7z"/>
	<path class="st1_personal-data-2" d="M376.1,341.6H97.5c-5.1,0-10.1-2.1-13.6-5.9c-3.3-3.5-5.1-8-5.1-12.8V129.7c0-10.3,8.4-18.6,18.7-18.7h278.6&#10;&#9;&#9;c10.3,0,18.6,8.4,18.7,18.7v193.2C394.8,333.2,386.4,341.6,376.1,341.6z M97.5,114.7c-8.3,0-15,6.7-15,15l0,0v193.2&#10;&#9;&#9;c0,3.8,1.4,7.5,4.1,10.3c2.8,3,6.8,4.7,10.9,4.7h278.6c8.3,0,15-6.7,15-15l0,0V129.7c0-8.3-6.7-15-15-15L97.5,114.7z"/>
	<rect x="97.5" y="128.4" class="st2_personal-data-2 targetColor" width="278.6" height="165" style="fill: rgb(219, 170, 97);"/>
	<path class="st1_personal-data-2" d="M376.1,295.2H97.5c-1,0-1.8-0.8-1.8-1.8v-165c0-1,0.8-1.8,1.8-1.8c0,0,0,0,0,0h278.6c1,0,1.8,0.8,1.8,1.8&#10;&#9;&#9;c0,0,0,0,0,0v165C377.9,294.4,377.1,295.2,376.1,295.2z M99.3,291.6h274.9V130.2H99.3V291.6z"/>
	<path class="st2_personal-data-2 targetColor" d="M273.6,339.8h-73.5c0,0,6.8,21.6-20.7,46h115C266.8,361.4,273.6,339.8,273.6,339.8z" style="fill: rgb(219, 170, 97);"/>
	<path class="st1_personal-data-2" d="M294.3,387.6h-115c-1,0-1.8-0.8-1.8-1.8c0-0.5,0.2-1,0.6-1.4c26.3-23.3,20.3-43.9,20.2-44.1&#10;&#9;&#9;c-0.3-1,0.2-2,1.2-2.3c0.2-0.1,0.4-0.1,0.6-0.1h73.5c1,0,1.8,0.8,1.8,1.8c0,0.2,0,0.4-0.1,0.5c-0.3,0.9-6,20.9,20.2,44.1&#10;&#9;&#9;c0.8,0.7,0.8,1.8,0.2,2.6C295.3,387.4,294.8,387.6,294.3,387.6L294.3,387.6z M184,383.9h105.7c-19.6-19.2-19.3-36.2-18.3-42.4h-69&#10;&#9;&#9;C203.3,347.7,203.6,364.8,184,383.9z"/>
	<path class="st1_personal-data-2" d="M236.8,324c-5,0-9.1-4.1-9.1-9.1c0-5,4.1-9.1,9.1-9.1c5,0,9.1,4.1,9.1,9.1c0,0,0,0,0,0&#10;&#9;&#9;C245.9,319.9,241.9,324,236.8,324z M236.8,309.4c-3,0-5.5,2.5-5.5,5.5c0,3,2.5,5.5,5.5,5.5s5.5-2.5,5.5-5.5&#10;&#9;&#9;C242.3,311.9,239.8,309.4,236.8,309.4L236.8,309.4z"/>
	<path class="st2_personal-data-2 targetColor" d="M169.4,385.8h134.8c3,0,5.4,2.4,5.4,5.4l0,0c0,3-2.4,5.4-5.4,5.4H169.4c-3,0-5.4-2.4-5.4-5.4l0,0&#10;&#9;&#9;C164,388.2,166.4,385.8,169.4,385.8z" style="fill: rgb(219, 170, 97);"/>
	<path class="st1_personal-data-2" d="M304.2,398.5H169.4c-4,0-7.3-3.3-7.3-7.3c0-4,3.3-7.3,7.3-7.3h134.8c4,0,7.3,3.3,7.3,7.3&#10;&#9;&#9;C311.5,395.2,308.3,398.5,304.2,398.5L304.2,398.5z M169.4,387.6c-2,0-3.6,1.6-3.6,3.6c0,2,1.6,3.6,3.6,3.6h134.8&#10;&#9;&#9;c2,0,3.6-1.6,3.6-3.6c0-2-1.6-3.6-3.6-3.6H169.4z"/>
	<path class="st0_personal-data-2" d="M347.1,160.3H231.6c-2,0-3.7-1.6-3.7-3.7s1.6-3.7,3.7-3.7h115.5c2,0,3.7,1.6,3.7,3.7S349.1,160.3,347.1,160.3z&#10;&#9;&#9;"/>
	<path class="st0_personal-data-2" d="M347.1,186.5H231.6c-2,0-3.7-1.6-3.7-3.7s1.6-3.7,3.7-3.7h115.5c2,0,3.7,1.6,3.7,3.7S349.1,186.5,347.1,186.5z&#10;&#9;&#9;"/>
	<path class="st0_personal-data-2" d="M335.8,212.6h-19.1c-2,0-3.7-1.6-3.7-3.7s1.6-3.7,3.7-3.7h19.1c2,0,3.7,1.6,3.7,3.7S337.8,212.6,335.8,212.6z"/>
	<path class="st0_personal-data-2" d="M294.3,212.6h-62.7c-2,0-3.7-1.6-3.7-3.7s1.6-3.7,3.7-3.7h62.7c2,0,3.7,1.6,3.7,3.7S296.3,212.6,294.3,212.6z"/>
	<path class="st0_personal-data-2" d="M358.3,275.6H123c-1,0-1.8-0.8-1.8-1.8v-33c0-1,0.8-1.8,1.8-1.8l0,0h235.3c1,0,1.8,0.8,1.8,1.8v33&#10;&#9;&#9;C360.1,274.7,359.3,275.6,358.3,275.6z M124.8,271.9h231.7v-29.4H124.8L124.8,271.9z"/>
	<path class="st0_personal-data-2" d="M272.7,275.6c-1,0-1.8-0.8-1.8-1.8v-33c0-1,0.8-1.8,1.8-1.8c1,0,1.8,0.8,1.8,1.8v33&#10;&#9;&#9;C274.6,274.7,273.8,275.6,272.7,275.6L272.7,275.6z"/>
	<path class="st0_personal-data-2" d="M167.1,275.6c-1,0-1.8-0.8-1.8-1.8v-33c0-1,0.8-1.8,1.8-1.8s1.8,0.8,1.8,1.8v33&#10;&#9;&#9;C169,274.7,168.2,275.6,167.1,275.6z"/>
	<path class="st0_personal-data-2" d="M247.2,259h-58.6c-1,0-1.8-0.8-1.8-1.8c0-1,0.8-1.8,1.8-1.8h58.6c1,0,1.8,0.8,1.8,1.8&#10;&#9;&#9;C249.1,258.2,248.2,259,247.2,259z"/>
	<path class="st0_personal-data-2" d="M335.8,259h-41.5c-1,0-1.8-0.8-1.8-1.8c0-1,0.8-1.8,1.8-1.8h41.5c1,0,1.8,0.8,1.8,1.8&#10;&#9;&#9;C337.6,258.2,336.8,259,335.8,259z"/>
</g>
<g id="padlock_personal-data-2">
	<circle class="st3_personal-data-2" cx="359" cy="289.2" r="60.3"/>
	<path class="st1_personal-data-2" d="M359,351.4c-34.3,0-62.1-27.8-62.2-62.1c0-34.3,27.8-62.2,62.1-62.2s62.2,27.8,62.2,62.1c0,0,0,0,0,0&#10;&#9;&#9;C421.1,323.5,393.3,351.3,359,351.4z M359,230.7c-32.3,0-58.5,26.2-58.5,58.5s26.2,58.5,58.5,58.5c32.3,0,58.5-26.2,58.5-58.5&#10;&#9;&#9;c0,0,0,0,0,0C417.5,256.9,391.3,230.8,359,230.7z"/>
	<path class="st4_personal-data-2" d="M380.1,288.9c-1.8,0-3.2-1.4-3.2-3.2V270c0.2-9.9-7.6-18.1-17.5-18.3c-9.9-0.2-18.1,7.6-18.3,17.5&#10;&#9;&#9;c0,0.3,0,0.6,0,0.8v15.7c0,1.8-1.4,3.2-3.2,3.2s-3.2-1.4-3.2-3.2c0,0,0,0,0,0V270c0-13.4,10.9-24.3,24.3-24.3&#10;&#9;&#9;c13.4,0,24.3,10.9,24.3,24.3l0,0v15.7C383.3,287.5,381.9,288.9,380.1,288.9z"/>
	<path class="st1_personal-data-2" d="M359,245.2c13.6,0.1,24.4,11.2,24.3,24.8v15.7c-0.1,1.8-1.6,3.1-3.4,3c-1.6-0.1-2.9-1.4-3-3V270&#10;&#9;&#9;c0.2-9.9-7.6-18.1-17.5-18.3c-9.9-0.2-18.1,7.6-18.3,17.5c0,0.3,0,0.6,0,0.8v15.7c0,1.8-1.4,3.2-3.2,3.2s-3.2-1.4-3.2-3.2&#10;&#9;&#9;c0,0,0,0,0,0V270C334.5,256.4,345.4,245.3,359,245.2C359,245.2,359,245.2,359,245.2 M359,241.6c-15.6,0.1-28.1,12.8-28,28.4v15.7&#10;&#9;&#9;c0,3.8,3.1,6.9,6.9,6.9c3.8,0,6.9-3.1,6.9-6.9V270c-0.3-7.9,5.9-14.5,13.7-14.8c7.9-0.3,14.5,5.9,14.8,13.7c0,0.4,0,0.7,0,1.1v15.7&#10;&#9;&#9;c0,3.8,3.1,6.9,6.9,6.9c3.8,0,6.9-3.1,6.9-6.9V270C387.1,254.4,374.5,241.7,359,241.6L359,241.6z"/>
	<path class="st4_personal-data-2" d="M332.5,278.6h53c4.1,0,7.5,3.4,7.5,7.5v33.1c0,4.1-3.4,7.5-7.5,7.5h-53c-4.1,0-7.5-3.4-7.5-7.5v-33.1&#10;&#9;&#9;C325,282,328.4,278.6,332.5,278.6z"/>
	<path class="st1_personal-data-2" d="M386.2,328.6h-54.5c-4.7,0-8.6-3.8-8.6-8.6v-34.7c0-4.7,3.8-8.5,8.6-8.5h54.5c4.7,0,8.5,3.8,8.5,8.5V320&#10;&#9;&#9;C394.8,324.7,391,328.6,386.2,328.6z M331.7,280.5c-2.7,0-4.9,2.2-4.9,4.9V320c0,2.7,2.2,4.9,4.9,4.9h54.5c2.7,0,4.9-2.2,4.9-4.9&#10;&#9;&#9;v-34.6c0-2.7-2.2-4.9-4.9-4.9H331.7z"/>
	<path class="st1_personal-data-2" d="M364.6,296.6c0-3.1-2.5-5.7-5.7-5.7c-3.1,0-5.7,2.5-5.7,5.7c0,2.2,1.3,4.2,3.2,5.1v7.4c0,1.4,1.1,2.5,2.4,2.5&#10;&#9;&#9;c1.4,0,2.5-1.1,2.5-2.4c0,0,0,0,0,0v-7.4C363.4,300.8,364.6,298.8,364.6,296.6z"/>
	<path class="st1_personal-data-2" d="M359,313.4c-2.4,0-4.3-1.9-4.3-4.3v-6.4c-3.4-2.4-4.3-7-1.9-10.4c2.4-3.4,7-4.3,10.4-1.9&#10;&#9;&#9;c3.4,2.4,4.3,7,1.9,10.4c-0.5,0.7-1.2,1.4-1.9,1.9v6.4C363.3,311.5,361.4,313.4,359,313.4z M359,292.8c-2.1,0-3.8,1.7-3.8,3.8&#10;&#9;&#9;c0,1.5,0.8,2.8,2.2,3.5c0.6,0.3,1,1,1,1.6v7.4c0,0.3,0.3,0.6,0.6,0.6c0.3,0,0.6-0.3,0.6-0.6v-7.4c0-0.7,0.4-1.3,1-1.6&#10;&#9;&#9;c1.9-0.9,2.7-3.2,1.8-5.1C361.7,293.6,360.4,292.8,359,292.8L359,292.8z"/>
</g>
<g id="character_personal-data-2">
	<path class="st0_personal-data-2" d="M132.9,146.5h68.8c5.5,0,9.9,4.5,9.9,9.9v55c0,5.5-4.5,9.9-9.9,9.9h-68.8c-5.5,0-9.9-4.5-9.9-9.9v-55&#10;&#9;&#9;C123,151,127.4,146.5,132.9,146.5z"/>
	<path class="st1_personal-data-2" d="M201.3,223.2h-67.9c-6.7,0-12.2-5.5-12.2-12.2v-54.1c0-6.7,5.5-12.2,12.2-12.2h67.9c6.7,0,12.2,5.5,12.2,12.2&#10;&#9;&#9;V211C213.5,217.7,208,223.2,201.3,223.2z M133.3,148.3c-4.7,0-8.5,3.8-8.5,8.5V211c0,4.7,3.8,8.5,8.5,8.5h67.9&#10;&#9;&#9;c4.7,0,8.5-3.8,8.5-8.5v-54.1c0-4.7-3.8-8.5-8.5-8.5L133.3,148.3z"/>
	<path class="st2_personal-data-2 targetColor" d="M138.1,221.4v-17c0-11,8.8-19.9,19.8-19.9c0,0,0.1,0,0.1,0h19c11,0,19.8,8.9,19.8,19.8c0,0,0,0,0,0v16.9&#10;&#9;&#9;L138.1,221.4z" style="fill: rgb(219, 170, 97);"/>
	<path class="st1_personal-data-2" d="M138.1,223.2c-1,0-1.8-0.8-1.8-1.8l0,0v-17c0-12,9.7-21.7,21.7-21.7c0,0,0,0,0,0h19c12,0,21.7,9.7,21.7,21.7&#10;&#9;&#9;v16.9c0,1-0.8,1.8-1.8,1.8L138.1,223.2L138.1,223.2z M158,186.3c-9.9,0-18,8.1-18,18v15.2l55-0.1v-15.1c0-9.9-8.1-18-18-18&#10;&#9;&#9;L158,186.3z"/>
	<polygon class="st1_personal-data-2" points="162.7,186.4 168.1,212.2 172.7,186.4 &#9;"/>
	<path class="st1_personal-data-2" d="M168.1,214.1c-0.9,0-1.6-0.6-1.8-1.5l-5.4-25.8c-0.1-0.5,0-1.1,0.4-1.5c0.3-0.4,0.9-0.7,1.4-0.7h10&#10;&#9;&#9;c0.5,0,1.1,0.2,1.4,0.6c0.3,0.4,0.5,1,0.4,1.5l-4.6,25.8C169.8,213.4,169,214,168.1,214.1L168.1,214.1z M165,188.3l3,14.3l2.5-14.3&#10;&#9;&#9;H165z"/>
	<path class="st5_personal-data-2" d="M164.9,103.6c1.2-0.2,2.5-0.3,3.7-0.3c5.7,0,11.6-0.2,16.8,2.4c10.8,5.3,17.6,16.3,17.7,28.3l-1.2,23.5h-68.8&#10;&#9;&#9;c-0.4-1.4,0.2-3,0.3-4.4c0-1.5-0.3-3.1-0.7-4.5c-0.8-3.8-1.3-7.7-1.4-11.7c0-6.2,1.3-12.3,3.8-17.9c1.4-3.4,3-6.9,6-9&#10;&#9;&#9;s7.8-2.2,9.9,0.8C154.8,107,159.7,104.4,164.9,103.6z"/>
	<path class="st1_personal-data-2" d="M202,159.4h-68.8c-0.8,0-1.5-0.5-1.8-1.3c-0.3-1.2-0.3-2.5,0-3.7c0.1-0.4,0.1-0.8,0.2-1.3c0-1-0.2-2.1-0.4-3.1&#10;&#9;&#9;c-0.1-0.3-0.1-0.7-0.2-1c-0.8-3.9-1.3-8-1.4-12c0-6.4,1.3-12.8,3.9-18.6c1.4-3.5,3.3-7.4,6.7-9.8c3.1-2.2,7.9-2.7,11-0.3&#10;&#9;&#9;c3.8-3.4,8.4-5.7,13.5-6.5l0,0c1.3-0.2,2.7-0.3,4-0.3h1c5.6,0,11.3,0,16.6,2.6c11.4,5.6,18.7,17.3,18.7,30c0,0.1,0,0.1-1.2,23.6&#10;&#9;&#9;C203.7,158.7,202.9,159.4,202,159.4z M135,155.8h65.2c0.3-5.4,1.1-21.5,1.1-21.8c-0.1-11.3-6.5-21.6-16.7-26.6&#10;&#9;&#9;c-4.5-2.2-9.6-2.2-15-2.2h-1c-1.1,0-2.3,0.1-3.4,0.3l0,0c-4.9,0.7-9.3,3.1-12.7,6.7c-0.7,0.7-1.8,0.8-2.6,0.1&#10;&#9;&#9;c-0.1-0.1-0.2-0.2-0.3-0.3c-1.5-2.1-5.1-1.9-7.4-0.4c-2.6,1.9-4.1,5.1-5.4,8.2c-2.4,5.4-3.6,11.3-3.6,17.2&#10;&#9;&#9;c0.1,3.8,0.5,7.6,1.3,11.3c0.1,0.3,0.1,0.6,0.2,0.9c0.3,1.3,0.5,2.6,0.5,4c0,0.6-0.1,1.2-0.2,1.7C135.1,155.3,135,155.5,135,155.8&#10;&#9;&#9;L135,155.8z"/>
	<path class="st6_personal-data-2" d="M162.7,180.7h10l0,0v7.7c0,1.3-1,2.3-2.3,2.3h0H165c-1.3,0-2.3-1-2.3-2.3v0L162.7,180.7L162.7,180.7z"/>
	<path class="st1_personal-data-2" d="M168.4,192.5h-1.5c-3.3,0-6.1-2.7-6.1-6.1v-5.7c0-1,0.8-1.8,1.8-1.8l0,0h10c1,0,1.8,0.8,1.8,1.8l0,0v5.7&#10;&#9;&#9;C174.5,189.8,171.8,192.5,168.4,192.5C168.5,192.5,168.5,192.5,168.4,192.5z M164.5,182.5v3.9c0,1.3,1.1,2.4,2.4,2.4l0,0h1.5&#10;&#9;&#9;c1.3,0,2.4-1.1,2.4-2.4l0,0v-3.9H164.5z"/>
	<ellipse class="st6_personal-data-2" cx="140.8" cy="154.8" rx="9.1" ry="8.4"/>
	<path class="st1_personal-data-2" d="M140.8,165c-6,0-11-4.6-11-10.2s4.9-10.2,11-10.2s10.9,4.6,10.9,10.2S146.9,165,140.8,165z M140.8,148.3&#10;&#9;&#9;c-4,0-7.3,2.9-7.3,6.5s3.3,6.5,7.3,6.5s7.3-2.9,7.3-6.5S144.9,148.2,140.8,148.3L140.8,148.3z"/>
	<ellipse class="st6_personal-data-2" cx="194.1" cy="154.8" rx="9.1" ry="8.4"/>
	<path class="st1_personal-data-2" d="M194.1,165c-6,0-11-4.6-11-10.2s4.9-10.2,11-10.2s11,4.6,11,10.2S200.1,165,194.1,165z M194.1,148.3&#10;&#9;&#9;c-4,0-7.3,2.9-7.3,6.5s3.3,6.5,7.3,6.5s7.3-2.9,7.3-6.5S198.1,148.2,194.1,148.3L194.1,148.3z"/>
	<path class="st6_personal-data-2" d="M167.7,182L167.7,182c-16.2,0-29.2-13.1-29.2-29.2V137c0,0,7.4-4.2,9.6-10.8c0,0,11.2,12.8,22.1,11.9&#10;&#9;&#9;c9-0.8,18-2,26.9-3.8v18.4C197,168.9,183.9,182,167.7,182C167.7,182,167.7,182,167.7,182z"/>
	<path class="st1_personal-data-2" d="M167.7,183.8c-17.2,0-31.1-13.9-31.1-31.1V137c0-0.7,0.4-1.3,0.9-1.6c0.1,0,6.8-4,8.7-9.8&#10;&#9;&#9;c0.3-1,1.3-1.5,2.3-1.2c0.3,0.1,0.6,0.3,0.8,0.5c0.1,0.1,10.8,12.1,20.6,11.3c8.9-0.8,17.8-2,26.6-3.7c1-0.2,1.9,0.4,2.2,1.4&#10;&#9;&#9;c0,0.1,0,0.3,0,0.4v18.4C198.8,169.9,184.8,183.8,167.7,183.8z M140.3,138v14.7c-0.3,15.1,11.8,27.6,26.9,27.9s27.6-11.8,27.9-26.9&#10;&#9;&#9;c0-0.3,0-0.7,0-1v-16.1c-4.3,0.8-14.3,2.5-24.9,3.4c-8.9,0.7-17.8-6.8-21.6-10.5C146.5,132.9,143.7,135.8,140.3,138z"/>
	<path class="st1_personal-data-2" d="M167.5,159.4c-0.9,0-1.9-0.1-2.8-0.2c-1-0.2-1.7-1.1-1.5-2.1c0,0,0,0,0,0c0.2-1,1.1-1.7,2.1-1.5&#10;&#9;&#9;c0.9,0.2,1.8,0.2,2.8,0.2c-0.5-1.8-1.2-3.5-2.1-5.1c-0.5-0.9-0.1-2,0.8-2.5s2-0.1,2.5,0.8c1.5,2.9,3.2,6.9,2.3,8.8&#10;&#9;&#9;c-0.3,0.7-0.9,1.2-1.6,1.4C169.2,159.4,168.4,159.4,167.5,159.4z"/>
	<path class="st1_personal-data-2" d="M150.8,223.2c-1,0-1.8-0.8-1.8-1.8l0,0v-19.9c0-1,0.8-1.8,1.8-1.8s1.8,0.8,1.8,1.8v19.9&#10;&#9;&#9;C152.7,222.4,151.9,223.2,150.8,223.2z"/>
	<path class="st1_personal-data-2" d="M183.8,223.2c-1,0-1.8-0.8-1.8-1.8l0,0v-19.9c0-1,0.8-1.8,1.8-1.8s1.8,0.8,1.8,1.8v19.9&#10;&#9;&#9;C185.6,222.4,184.8,223.2,183.8,223.2z"/>
</g>
</svg>